<svg width="599" height="262" viewBox="0 0 599 262" fill="none" xmlns="http://www.w3.org/2000/svg">
<g opacity="0.5">
<path d="M3.2983 53V3.54545H36.6222V12.1662H13.7543V23.9503H34.9077V32.571H13.7543V44.3793H36.7188V53H3.2983ZM61.2879 15.9091V23.6364H38.3958V15.9091H61.2879ZM43.6359 53V13.2287C43.6359 10.5402 44.1591 8.3106 45.2055 6.53977C46.268 4.76894 47.7168 3.44081 49.5521 2.55539C51.3873 1.66998 53.472 1.22727 55.8063 1.22727C57.384 1.22727 58.8248 1.34801 60.1288 1.58949C61.4488 1.83096 62.4308 2.04829 63.0748 2.24148L61.2396 9.96875C60.8371 9.83996 60.338 9.71922 59.7424 9.60653C59.1629 9.49384 58.5672 9.4375 57.9555 9.4375C56.4422 9.4375 55.3878 9.79167 54.7921 10.5C54.1965 11.1922 53.8986 12.1662 53.8986 13.4219V53H43.6359ZM84.1183 15.9091V23.6364H61.2263V15.9091H84.1183ZM66.4663 53V13.2287C66.4663 10.5402 66.9895 8.3106 68.0359 6.53977C69.0984 4.76894 70.5473 3.44081 72.3825 2.55539C74.2178 1.66998 76.3025 1.22727 78.6368 1.22727C80.2144 1.22727 81.6553 1.34801 82.9592 1.58949C84.2793 1.83096 85.2613 2.04829 85.9053 2.24148L84.07 9.96875C83.6676 9.83996 83.1685 9.71922 82.5729 9.60653C81.9933 9.49384 81.3977 9.4375 80.7859 9.4375C79.2727 9.4375 78.2182 9.79167 77.6226 10.5C77.0269 11.1922 76.7291 12.1662 76.7291 13.4219V53H66.4663ZM102.578 53.7244C98.7627 53.7244 95.4786 52.9517 92.7258 51.4062C89.989 49.8447 87.8801 47.6392 86.3991 44.7898C84.918 41.9242 84.1775 38.5355 84.1775 34.6236C84.1775 30.8082 84.918 27.4598 86.3991 24.5781C87.8801 21.6965 89.9649 19.4508 92.6533 17.8409C95.3579 16.2311 98.5293 15.4261 102.168 15.4261C104.615 15.4261 106.892 15.8205 109.001 16.6094C111.126 17.3821 112.978 18.5492 114.555 20.1108C116.149 21.6723 117.389 23.6364 118.274 26.0028C119.159 28.3532 119.602 31.1061 119.602 34.2614V37.0866H88.2826V30.7116H109.919C109.919 29.2306 109.597 27.9186 108.953 26.7756C108.309 25.6326 107.416 24.7391 106.273 24.0952C105.146 23.4351 103.834 23.1051 102.337 23.1051C100.775 23.1051 99.3906 23.4673 98.1832 24.1918C96.9919 24.9001 96.0582 25.858 95.382 27.0653C94.7059 28.2566 94.3598 29.5848 94.3437 31.0497V37.1108C94.3437 38.946 94.6818 40.5317 95.3579 41.8679C96.0501 43.2041 97.0241 44.2344 98.2798 44.9588C99.5354 45.6832 101.025 46.0455 102.747 46.0455C103.89 46.0455 104.936 45.8845 105.886 45.5625C106.836 45.2405 107.649 44.7576 108.325 44.1136C109.001 43.4697 109.517 42.6809 109.871 41.7472L119.385 42.375C118.902 44.661 117.912 46.6572 116.415 48.3636C114.934 50.054 113.018 51.3741 110.668 52.3239C108.333 53.2576 105.637 53.7244 102.578 53.7244ZM139.674 53.7244C135.875 53.7244 132.607 52.9195 129.87 51.3097C127.149 49.6837 125.056 47.4299 123.591 44.5483C122.143 41.6667 121.418 38.3504 121.418 34.5994C121.418 30.8002 122.151 27.4678 123.616 24.6023C125.097 21.7206 127.197 19.4749 129.918 17.8651C132.639 16.2391 135.875 15.4261 139.625 15.4261C142.861 15.4261 145.695 16.0137 148.125 17.1889C150.556 18.3641 152.48 20.0142 153.897 22.1392C155.313 24.2642 156.094 26.7595 156.239 29.625H146.532C146.258 27.7737 145.534 26.2846 144.358 25.1577C143.199 24.0147 141.678 23.4432 139.795 23.4432C138.201 23.4432 136.808 23.8778 135.617 24.7472C134.442 25.6004 133.524 26.848 132.864 28.4901C132.204 30.1321 131.874 32.1203 131.874 34.4545C131.874 36.821 132.196 38.8333 132.84 40.4915C133.5 42.1496 134.426 43.4134 135.617 44.2827C136.808 45.152 138.201 45.5866 139.795 45.5866C140.97 45.5866 142.024 45.3452 142.958 44.8622C143.908 44.3793 144.688 43.679 145.3 42.7614C145.928 41.8277 146.339 40.7088 146.532 39.4048H156.239C156.078 42.2382 155.305 44.7334 153.921 46.8906C152.553 49.0317 150.661 50.706 148.246 51.9134C145.831 53.1207 142.974 53.7244 139.674 53.7244ZM179.154 15.9091V23.6364H156.817V15.9091H179.154ZM161.888 7.02273H172.175V41.6023C172.175 42.5521 172.32 43.2926 172.61 43.8239C172.9 44.339 173.302 44.7012 173.817 44.9105C174.349 45.1198 174.96 45.2244 175.653 45.2244C176.136 45.2244 176.619 45.1842 177.102 45.1037C177.585 45.0071 177.955 44.9347 178.212 44.8864L179.83 52.5412C179.315 52.7022 178.591 52.8873 177.657 53.0966C176.723 53.322 175.588 53.4588 174.252 53.5071C171.773 53.6037 169.6 53.2737 167.732 52.517C165.881 51.7604 164.44 50.5852 163.41 48.9915C162.379 47.3977 161.872 45.3854 161.888 42.9545V7.02273ZM182.455 53V15.9091H192.742V53H182.455ZM187.623 11.1278C186.093 11.1278 184.781 10.6207 183.687 9.60653C182.608 8.57623 182.069 7.3447 182.069 5.91193C182.069 4.49526 182.608 3.27983 183.687 2.26562C184.781 1.23532 186.093 0.720168 187.623 0.720168C189.152 0.720168 190.456 1.23532 191.535 2.26562C192.629 3.27983 193.177 4.49526 193.177 5.91193C193.177 7.3447 192.629 8.57623 191.535 9.60653C190.456 10.6207 189.152 11.1278 187.623 11.1278ZM232.162 15.9091L219.195 53H207.604L194.636 15.9091H205.503L213.206 42.4474H213.592L221.271 15.9091H232.162ZM249.734 53.7244C245.919 53.7244 242.635 52.9517 239.882 51.4062C237.145 49.8447 235.036 47.6392 233.555 44.7898C232.074 41.9242 231.334 38.5355 231.334 34.6236C231.334 30.8082 232.074 27.4598 233.555 24.5781C235.036 21.6965 237.121 19.4508 239.81 17.8409C242.514 16.2311 245.686 15.4261 249.324 15.4261C251.771 15.4261 254.049 15.8205 256.158 16.6094C258.283 17.3821 260.134 18.5492 261.712 20.1108C263.305 21.6723 264.545 23.6364 265.43 26.0028C266.316 28.3532 266.758 31.1061 266.758 34.2614V37.0866H235.439V30.7116H257.075C257.075 29.2306 256.753 27.9186 256.109 26.7756C255.465 25.6326 254.572 24.7391 253.429 24.0952C252.302 23.4351 250.99 23.1051 249.493 23.1051C247.931 23.1051 246.547 23.4673 245.339 24.1918C244.148 24.9001 243.214 25.858 242.538 27.0653C241.862 28.2566 241.516 29.5848 241.5 31.0497V37.1108C241.5 38.946 241.838 40.5317 242.514 41.8679C243.206 43.2041 244.18 44.2344 245.436 44.9588C246.692 45.6832 248.181 46.0455 249.903 46.0455C251.046 46.0455 252.093 45.8845 253.043 45.5625C253.992 45.2405 254.805 44.7576 255.481 44.1136C256.158 43.4697 256.673 42.6809 257.027 41.7472L266.541 42.375C266.058 44.661 265.068 46.6572 263.571 48.3636C262.09 50.054 260.174 51.3741 257.824 52.3239C255.49 53.2576 252.793 53.7244 249.734 53.7244ZM280.358 3.54545V53H270.072V3.54545H280.358ZM291.55 66.9091C290.246 66.9091 289.022 66.8045 287.879 66.5952C286.752 66.402 285.819 66.1525 285.078 65.8466L287.396 58.1676C288.604 58.5379 289.69 58.7391 290.656 58.7713C291.638 58.8035 292.483 58.5781 293.192 58.0952C293.916 57.6122 294.504 56.7912 294.955 55.6321L295.558 54.0625L282.253 15.9091H293.071L300.75 43.1477H301.136L308.888 15.9091H319.778L305.362 57.0085C304.67 59.0047 303.728 60.7434 302.537 62.2244C301.362 63.7216 299.873 64.8726 298.07 65.6776C296.267 66.4986 294.093 66.9091 291.55 66.9091ZM333.981 53V15.9091H343.785V22.4531H344.22C344.992 20.2798 346.28 18.5653 348.083 17.3097C349.886 16.054 352.043 15.4261 354.555 15.4261C357.098 15.4261 359.264 16.062 361.051 17.3338C362.837 18.5895 364.029 20.2959 364.624 22.4531H365.011C365.767 20.3281 367.136 18.6297 369.116 17.358C371.112 16.0701 373.47 15.4261 376.191 15.4261C379.652 15.4261 382.461 16.5289 384.619 18.7344C386.792 20.9238 387.879 24.0308 387.879 28.0554V53H377.616V30.0838C377.616 28.0232 377.069 26.4777 375.974 25.4474C374.879 24.4171 373.511 23.902 371.869 23.902C370.001 23.902 368.544 24.4976 367.498 25.6889C366.452 26.8641 365.928 28.4176 365.928 30.3494V53H355.955V29.8665C355.955 28.0473 355.432 26.5985 354.386 25.5199C353.355 24.4413 351.995 23.902 350.305 23.902C349.162 23.902 348.131 24.1918 347.214 24.7713C346.312 25.3348 345.596 26.1316 345.065 27.1619C344.533 28.1761 344.268 29.3674 344.268 30.7358V53H333.981ZM403.181 53.7003C400.815 53.7003 398.706 53.2898 396.854 52.4688C395.003 51.6316 393.538 50.4001 392.459 48.7741C391.397 47.1321 390.866 45.0876 390.866 42.6406C390.866 40.58 391.244 38.8494 392.001 37.4489C392.757 36.0483 393.788 34.9214 395.092 34.0682C396.396 33.215 397.877 32.571 399.535 32.1364C401.209 31.7017 402.964 31.3958 404.799 31.2188C406.956 30.9934 408.695 30.7841 410.015 30.5909C411.335 30.3816 412.293 30.0758 412.888 29.6733C413.484 29.2708 413.782 28.6752 413.782 27.8864V27.7415C413.782 26.2121 413.299 25.0289 412.333 24.1918C411.383 23.3546 410.031 22.9361 408.276 22.9361C406.425 22.9361 404.952 23.3466 403.857 24.1676C402.762 24.9725 402.038 25.9867 401.684 27.2102L392.17 26.4375C392.653 24.1837 393.602 22.2358 395.019 20.5938C396.436 18.9356 398.263 17.6638 400.501 16.7784C402.754 15.8769 405.362 15.4261 408.324 15.4261C410.385 15.4261 412.357 15.6676 414.241 16.1506C416.14 16.6335 417.823 17.3821 419.288 18.3963C420.769 19.4105 421.936 20.7145 422.789 22.3082C423.642 23.8859 424.069 25.7775 424.069 27.983V53H414.313V47.8565H414.023C413.428 49.0156 412.631 50.0379 411.633 50.9233C410.635 51.7926 409.435 52.4768 408.035 52.9759C406.634 53.4588 405.016 53.7003 403.181 53.7003ZM406.127 46.6009C407.64 46.6009 408.976 46.303 410.136 45.7074C411.295 45.0956 412.204 44.2746 412.864 43.2443C413.524 42.214 413.854 41.0469 413.854 39.7429V35.8068C413.532 36.0161 413.09 36.2093 412.526 36.3864C411.979 36.5473 411.359 36.7003 410.667 36.8452C409.975 36.974 409.282 37.0947 408.59 37.2074C407.898 37.304 407.27 37.3925 406.707 37.473C405.499 37.6501 404.445 37.9318 403.543 38.3182C402.642 38.7045 401.941 39.2277 401.442 39.8878C400.943 40.5317 400.694 41.3366 400.694 42.3026C400.694 43.7031 401.201 44.7737 402.215 45.5142C403.245 46.2386 404.549 46.6009 406.127 46.6009ZM438.937 31.5568V53H428.65V15.9091H438.454V22.4531H438.888C439.709 20.2959 441.086 18.5895 443.018 17.3338C444.949 16.062 447.292 15.4261 450.045 15.4261C452.62 15.4261 454.866 15.9896 456.782 17.1165C458.697 18.2434 460.187 19.8532 461.249 21.946C462.312 24.0227 462.843 26.5019 462.843 29.3835V53H452.556V31.2188C452.572 28.9489 451.992 27.178 450.817 25.9062C449.642 24.6184 448.024 23.9744 445.964 23.9744C444.579 23.9744 443.356 24.2723 442.293 24.8679C441.247 25.4635 440.426 26.3329 439.83 27.4759C439.25 28.6027 438.953 29.9631 438.937 31.5568ZM478.127 53.7003C475.761 53.7003 473.652 53.2898 471.8 52.4688C469.949 51.6316 468.484 50.4001 467.406 48.7741C466.343 47.1321 465.812 45.0876 465.812 42.6406C465.812 40.58 466.19 38.8494 466.947 37.4489C467.703 36.0483 468.734 34.9214 470.038 34.0682C471.342 33.215 472.823 32.571 474.481 32.1364C476.155 31.7017 477.91 31.3958 479.745 31.2188C481.902 30.9934 483.641 30.7841 484.961 30.5909C486.281 30.3816 487.239 30.0758 487.835 29.6733C488.43 29.2708 488.728 28.6752 488.728 27.8864V27.7415C488.728 26.2121 488.245 25.0289 487.279 24.1918C486.329 23.3546 484.977 22.9361 483.222 22.9361C481.371 22.9361 479.898 23.3466 478.803 24.1676C477.709 24.9725 476.984 25.9867 476.63 27.2102L467.116 26.4375C467.599 24.1837 468.549 22.2358 469.965 20.5938C471.382 18.9356 473.209 17.6638 475.447 16.7784C477.701 15.8769 480.308 15.4261 483.271 15.4261C485.331 15.4261 487.303 15.6676 489.187 16.1506C491.086 16.6335 492.769 17.3821 494.234 18.3963C495.715 19.4105 496.882 20.7145 497.735 22.3082C498.588 23.8859 499.015 25.7775 499.015 27.983V53H489.259V47.8565H488.969C488.374 49.0156 487.577 50.0379 486.579 50.9233C485.581 51.7926 484.381 52.4768 482.981 52.9759C481.58 53.4588 479.962 53.7003 478.127 53.7003ZM481.073 46.6009C482.586 46.6009 483.923 46.303 485.082 45.7074C486.241 45.0956 487.15 44.2746 487.81 43.2443C488.47 42.214 488.8 41.0469 488.8 39.7429V35.8068C488.478 36.0161 488.036 36.2093 487.472 36.3864C486.925 36.5473 486.305 36.7003 485.613 36.8452C484.921 36.974 484.228 37.0947 483.536 37.2074C482.844 37.304 482.216 37.3925 481.653 37.473C480.445 37.6501 479.391 37.9318 478.489 38.3182C477.588 38.7045 476.888 39.2277 476.388 39.8878C475.889 40.5317 475.64 41.3366 475.64 42.3026C475.64 43.7031 476.147 44.7737 477.161 45.5142C478.192 46.2386 479.496 46.6009 481.073 46.6009ZM520.306 67.6818C516.974 67.6818 514.116 67.223 511.734 66.3054C509.367 65.4039 507.484 64.1723 506.083 62.6108C504.682 61.0492 503.773 59.2945 503.354 57.3466L512.868 56.0668C513.158 56.8073 513.617 57.4995 514.245 58.1435C514.873 58.7874 515.702 59.3026 516.732 59.6889C517.779 60.0914 519.05 60.2926 520.547 60.2926C522.785 60.2926 524.628 59.7453 526.077 58.6506C527.542 57.572 528.275 55.7609 528.275 53.2173V46.4318H527.84C527.389 47.4621 526.713 48.4361 525.812 49.3537C524.91 50.2713 523.751 51.0199 522.334 51.5994C520.918 52.179 519.227 52.4688 517.263 52.4688C514.478 52.4688 511.943 51.8248 509.657 50.5369C507.387 49.233 505.576 47.2448 504.224 44.5724C502.887 41.884 502.219 38.4872 502.219 34.3821C502.219 30.1804 502.904 26.6709 504.272 23.8537C505.64 21.0365 507.459 18.9276 509.729 17.527C512.015 16.1264 514.519 15.4261 517.239 15.4261C519.316 15.4261 521.055 15.7803 522.455 16.4886C523.856 17.1809 524.983 18.0502 525.836 19.0966C526.705 20.1269 527.373 21.1411 527.84 22.1392H528.226V15.9091H538.441V53.3622C538.441 56.5175 537.668 59.1577 536.123 61.2827C534.577 63.4077 532.436 65.0014 529.699 66.0639C526.979 67.1425 523.848 67.6818 520.306 67.6818ZM520.523 44.7415C522.181 44.7415 523.582 44.331 524.725 43.5099C525.884 42.6728 526.77 41.4815 527.381 39.9361C528.009 38.3745 528.323 36.5071 528.323 34.3338C528.323 32.1605 528.017 30.277 527.405 28.6832C526.794 27.0734 525.908 25.8258 524.749 24.9403C523.59 24.0549 522.181 23.6122 520.523 23.6122C518.833 23.6122 517.408 24.071 516.249 24.9886C515.09 25.8902 514.213 27.1458 513.617 28.7557C513.021 30.3655 512.724 32.2249 512.724 34.3338C512.724 36.4749 513.021 38.3262 513.617 39.8878C514.229 41.4332 515.106 42.6326 516.249 43.4858C517.408 44.3229 518.833 44.7415 520.523 44.7415ZM560.13 53.7244C556.315 53.7244 553.031 52.9517 550.278 51.4062C547.541 49.8447 545.432 47.6392 543.951 44.7898C542.47 41.9242 541.73 38.5355 541.73 34.6236C541.73 30.8082 542.47 27.4598 543.951 24.5781C545.432 21.6965 547.517 19.4508 550.206 17.8409C552.91 16.2311 556.082 15.4261 559.72 15.4261C562.167 15.4261 564.445 15.8205 566.554 16.6094C568.679 17.3821 570.53 18.5492 572.108 20.1108C573.701 21.6723 574.941 23.6364 575.826 26.0028C576.712 28.3532 577.155 31.1061 577.155 34.2614V37.0866H545.835V30.7116H567.471C567.471 29.2306 567.149 27.9186 566.505 26.7756C565.861 25.6326 564.968 24.7391 563.825 24.0952C562.698 23.4351 561.386 23.1051 559.889 23.1051C558.327 23.1051 556.943 23.4673 555.736 24.1918C554.544 24.9001 553.611 25.858 552.934 27.0653C552.258 28.2566 551.912 29.5848 551.896 31.0497V37.1108C551.896 38.946 552.234 40.5317 552.91 41.8679C553.602 43.2041 554.576 44.2344 555.832 44.9588C557.088 45.6832 558.577 46.0455 560.299 46.0455C561.442 46.0455 562.489 45.8845 563.439 45.5625C564.388 45.2405 565.201 44.7576 565.878 44.1136C566.554 43.4697 567.069 42.6809 567.423 41.7472L576.937 42.375C576.454 44.661 575.464 46.6572 573.967 48.3636C572.486 50.054 570.57 51.3741 568.22 52.3239C565.886 53.2576 563.189 53.7244 560.13 53.7244ZM9.45597 170.909C8.15199 170.909 6.9285 170.804 5.78551 170.595C4.65862 170.402 3.72491 170.152 2.98438 169.847L5.30256 162.168C6.50994 162.538 7.59659 162.739 8.5625 162.771C9.54451 162.804 10.3897 162.578 11.098 162.095C11.8224 161.612 12.41 160.791 12.8608 159.632L13.4645 158.062L0.159091 119.909H10.9773L18.6562 147.148H19.0426L26.794 119.909H37.6847L23.2685 161.009C22.5762 163.005 21.6345 164.743 20.4432 166.224C19.268 167.722 17.7789 168.873 15.9759 169.678C14.1728 170.499 11.9995 170.909 9.45597 170.909ZM55.1121 157.724C51.3611 157.724 48.1173 156.928 45.3805 155.334C42.6599 153.724 40.559 151.486 39.078 148.621C37.5969 145.739 36.8564 142.399 36.8564 138.599C36.8564 134.768 37.5969 131.42 39.078 128.554C40.559 125.672 42.6599 123.435 45.3805 121.841C48.1173 120.231 51.3611 119.426 55.1121 119.426C58.863 119.426 62.0988 120.231 64.8195 121.841C67.5562 123.435 69.6651 125.672 71.1462 128.554C72.6272 131.42 73.3678 134.768 73.3678 138.599C73.3678 142.399 72.6272 145.739 71.1462 148.621C69.6651 151.486 67.5562 153.724 64.8195 155.334C62.0988 156.928 58.863 157.724 55.1121 157.724ZM55.1604 149.756C56.8668 149.756 58.2915 149.273 59.4345 148.307C60.5775 147.325 61.4388 145.989 62.0183 144.298C62.614 142.608 62.9118 140.684 62.9118 138.527C62.9118 136.37 62.614 134.446 62.0183 132.756C61.4388 131.065 60.5775 129.729 59.4345 128.747C58.2915 127.765 56.8668 127.274 55.1604 127.274C53.4378 127.274 51.989 127.765 50.8138 128.747C49.6547 129.729 48.7773 131.065 48.1817 132.756C47.6021 134.446 47.3124 136.37 47.3124 138.527C47.3124 140.684 47.6021 142.608 48.1817 144.298C48.7773 145.989 49.6547 147.325 50.8138 148.307C51.989 149.273 53.4378 149.756 55.1604 149.756ZM100.442 141.207V119.909H110.729V157H100.853V150.263H100.466C99.6292 152.436 98.2367 154.183 96.2888 155.503C94.357 156.823 91.9985 157.483 89.2135 157.483C86.7343 157.483 84.553 156.92 82.6695 155.793C80.7859 154.666 79.3129 153.064 78.2504 150.987C77.204 148.911 76.6728 146.423 76.6567 143.526V119.909H86.9436V141.69C86.9597 143.88 87.5473 145.61 88.7064 146.882C89.8655 148.154 91.419 148.79 93.3669 148.79C94.6065 148.79 95.7656 148.508 96.8442 147.945C97.9228 147.365 98.7921 146.512 99.4521 145.385C100.128 144.258 100.458 142.866 100.442 141.207ZM115.557 157V119.909H125.53V126.381H125.917C126.593 124.079 127.728 122.34 129.322 121.165C130.915 119.973 132.751 119.378 134.827 119.378C135.342 119.378 135.898 119.41 136.494 119.474C137.089 119.539 137.612 119.627 138.063 119.74V128.868C137.58 128.723 136.912 128.594 136.059 128.482C135.206 128.369 134.425 128.312 133.717 128.312C132.203 128.312 130.851 128.643 129.66 129.303C128.485 129.946 127.551 130.848 126.859 132.007C126.182 133.166 125.844 134.502 125.844 136.016V157H115.557Z" fill="white"/>
<path d="M183.181 130.486L173.763 131.065C173.602 130.26 173.256 129.536 172.725 128.892C172.194 128.232 171.493 127.709 170.624 127.322C169.771 126.92 168.748 126.719 167.557 126.719C165.963 126.719 164.619 127.057 163.525 127.733C162.43 128.393 161.882 129.278 161.882 130.389C161.882 131.275 162.237 132.023 162.945 132.635C163.653 133.247 164.869 133.738 166.591 134.108L173.304 135.46C176.91 136.201 179.599 137.392 181.37 139.034C183.141 140.676 184.026 142.833 184.026 145.506C184.026 147.937 183.31 150.07 181.877 151.905C180.46 153.74 178.512 155.173 176.033 156.203C173.57 157.217 170.729 157.724 167.509 157.724C162.599 157.724 158.687 156.702 155.773 154.658C152.875 152.597 151.177 149.796 150.678 146.254L160.796 145.723C161.102 147.22 161.842 148.363 163.017 149.152C164.193 149.925 165.698 150.311 167.533 150.311C169.336 150.311 170.785 149.965 171.88 149.273C172.99 148.564 173.554 147.655 173.57 146.544C173.554 145.61 173.159 144.846 172.387 144.25C171.614 143.638 170.423 143.171 168.813 142.849L162.39 141.57C158.767 140.845 156.071 139.589 154.3 137.803C152.545 136.016 151.668 133.738 151.668 130.969C151.668 128.586 152.312 126.534 153.6 124.811C154.904 123.089 156.731 121.76 159.081 120.827C161.448 119.893 164.217 119.426 167.388 119.426C172.073 119.426 175.759 120.416 178.448 122.396C181.152 124.376 182.73 127.073 183.181 130.486ZM206.832 119.909V127.636H184.496V119.909H206.832ZM189.567 111.023H199.854V145.602C199.854 146.552 199.998 147.293 200.288 147.824C200.578 148.339 200.98 148.701 201.496 148.911C202.027 149.12 202.639 149.224 203.331 149.224C203.814 149.224 204.297 149.184 204.78 149.104C205.263 149.007 205.633 148.935 205.89 148.886L207.508 156.541C206.993 156.702 206.269 156.887 205.335 157.097C204.401 157.322 203.266 157.459 201.93 157.507C199.451 157.604 197.278 157.274 195.41 156.517C193.559 155.76 192.118 154.585 191.088 152.991C190.058 151.398 189.551 149.385 189.567 146.955V111.023ZM220.71 157.7C218.343 157.7 216.235 157.29 214.383 156.469C212.532 155.632 211.067 154.4 209.988 152.774C208.926 151.132 208.395 149.088 208.395 146.641C208.395 144.58 208.773 142.849 209.53 141.449C210.286 140.048 211.316 138.921 212.62 138.068C213.924 137.215 215.405 136.571 217.064 136.136C218.738 135.702 220.493 135.396 222.328 135.219C224.485 134.993 226.224 134.784 227.544 134.591C228.864 134.382 229.822 134.076 230.417 133.673C231.013 133.271 231.311 132.675 231.311 131.886V131.741C231.311 130.212 230.828 129.029 229.862 128.192C228.912 127.355 227.56 126.936 225.805 126.936C223.954 126.936 222.481 127.347 221.386 128.168C220.291 128.973 219.567 129.987 219.213 131.21L209.699 130.438C210.182 128.184 211.131 126.236 212.548 124.594C213.965 122.936 215.792 121.664 218.03 120.778C220.283 119.877 222.891 119.426 225.853 119.426C227.914 119.426 229.886 119.668 231.77 120.151C233.669 120.634 235.352 121.382 236.816 122.396C238.298 123.411 239.465 124.714 240.318 126.308C241.171 127.886 241.598 129.777 241.598 131.983V157H231.842V151.857H231.552C230.957 153.016 230.16 154.038 229.162 154.923C228.164 155.793 226.964 156.477 225.564 156.976C224.163 157.459 222.545 157.7 220.71 157.7ZM223.656 150.601C225.169 150.601 226.505 150.303 227.664 149.707C228.824 149.096 229.733 148.275 230.393 147.244C231.053 146.214 231.383 145.047 231.383 143.743V139.807C231.061 140.016 230.619 140.209 230.055 140.386C229.508 140.547 228.888 140.7 228.196 140.845C227.504 140.974 226.811 141.095 226.119 141.207C225.427 141.304 224.799 141.393 224.236 141.473C223.028 141.65 221.974 141.932 221.072 142.318C220.171 142.705 219.47 143.228 218.971 143.888C218.472 144.532 218.223 145.337 218.223 146.303C218.223 147.703 218.73 148.774 219.744 149.514C220.774 150.239 222.078 150.601 223.656 150.601ZM266.125 119.909V127.636H243.233V119.909H266.125ZM248.473 157V117.229C248.473 114.54 248.996 112.311 250.042 110.54C251.105 108.769 252.554 107.441 254.389 106.555C256.224 105.67 258.309 105.227 260.643 105.227C262.221 105.227 263.662 105.348 264.965 105.589C266.286 105.831 267.268 106.048 267.912 106.241L266.076 113.969C265.674 113.84 265.175 113.719 264.579 113.607C264 113.494 263.404 113.438 262.792 113.438C261.279 113.438 260.224 113.792 259.629 114.5C259.033 115.192 258.735 116.166 258.735 117.422V157H248.473ZM288.955 119.909V127.636H266.063V119.909H288.955ZM271.303 157V117.229C271.303 114.54 271.826 112.311 272.873 110.54C273.935 108.769 275.384 107.441 277.219 106.555C279.054 105.67 281.139 105.227 283.474 105.227C285.051 105.227 286.492 105.348 287.796 105.589C289.116 105.831 290.098 106.048 290.742 106.241L288.907 113.969C288.504 113.84 288.005 113.719 287.41 113.607C286.83 113.494 286.234 113.438 285.623 113.438C284.109 113.438 283.055 113.792 282.459 114.5C281.864 115.192 281.566 116.166 281.566 117.422V157H271.303ZM323.906 119.909V127.636H301.57V119.909H323.906ZM306.641 111.023H316.928V145.602C316.928 146.552 317.073 147.293 317.362 147.824C317.652 148.339 318.055 148.701 318.57 148.911C319.101 149.12 319.713 149.224 320.405 149.224C320.888 149.224 321.371 149.184 321.854 149.104C322.337 149.007 322.707 148.935 322.965 148.886L324.583 156.541C324.067 156.702 323.343 156.887 322.409 157.097C321.476 157.322 320.341 157.459 319.004 157.507C316.525 157.604 314.352 157.274 312.485 156.517C310.633 155.76 309.192 154.585 308.162 152.991C307.132 151.398 306.625 149.385 306.641 146.955V111.023ZM343.712 157.724C339.897 157.724 336.613 156.952 333.86 155.406C331.123 153.845 329.015 151.639 327.533 148.79C326.052 145.924 325.312 142.536 325.312 138.624C325.312 134.808 326.052 131.46 327.533 128.578C329.015 125.696 331.099 123.451 333.788 121.841C336.492 120.231 339.664 119.426 343.302 119.426C345.749 119.426 348.027 119.821 350.136 120.609C352.261 121.382 354.112 122.549 355.69 124.111C357.283 125.672 358.523 127.636 359.408 130.003C360.294 132.353 360.737 135.106 360.737 138.261V141.087H329.417V134.712H351.053C351.053 133.231 350.731 131.919 350.087 130.776C349.444 129.633 348.55 128.739 347.407 128.095C346.28 127.435 344.968 127.105 343.471 127.105C341.909 127.105 340.525 127.467 339.318 128.192C338.126 128.9 337.193 129.858 336.516 131.065C335.84 132.257 335.494 133.585 335.478 135.05V141.111C335.478 142.946 335.816 144.532 336.492 145.868C337.185 147.204 338.158 148.234 339.414 148.959C340.67 149.683 342.159 150.045 343.881 150.045C345.024 150.045 346.071 149.884 347.021 149.562C347.97 149.241 348.783 148.758 349.46 148.114C350.136 147.47 350.651 146.681 351.005 145.747L360.519 146.375C360.036 148.661 359.046 150.657 357.549 152.364C356.068 154.054 354.152 155.374 351.802 156.324C349.468 157.258 346.771 157.724 343.712 157.724ZM374.626 157.7C372.26 157.7 370.151 157.29 368.3 156.469C366.448 155.632 364.983 154.4 363.905 152.774C362.842 151.132 362.311 149.088 362.311 146.641C362.311 144.58 362.689 142.849 363.446 141.449C364.203 140.048 365.233 138.921 366.537 138.068C367.841 137.215 369.322 136.571 370.98 136.136C372.654 135.702 374.409 135.396 376.244 135.219C378.401 134.993 380.14 134.784 381.46 134.591C382.78 134.382 383.738 134.076 384.334 133.673C384.929 133.271 385.227 132.675 385.227 131.886V131.741C385.227 130.212 384.744 129.029 383.778 128.192C382.829 127.355 381.476 126.936 379.722 126.936C377.87 126.936 376.397 127.347 375.302 128.168C374.208 128.973 373.483 129.987 373.129 131.21L363.615 130.438C364.098 128.184 365.048 126.236 366.464 124.594C367.881 122.936 369.708 121.664 371.946 120.778C374.2 119.877 376.808 119.426 379.77 119.426C381.83 119.426 383.802 119.668 385.686 120.151C387.586 120.634 389.268 121.382 390.733 122.396C392.214 123.411 393.381 124.714 394.234 126.308C395.088 127.886 395.514 129.777 395.514 131.983V157H385.758V151.857H385.469C384.873 153.016 384.076 154.038 383.078 154.923C382.08 155.793 380.881 156.477 379.48 156.976C378.079 157.459 376.462 157.7 374.626 157.7ZM377.572 150.601C379.086 150.601 380.422 150.303 381.581 149.707C382.74 149.096 383.65 148.275 384.31 147.244C384.97 146.214 385.3 145.047 385.3 143.743V139.807C384.978 140.016 384.535 140.209 383.972 140.386C383.424 140.547 382.804 140.7 382.112 140.845C381.42 140.974 380.728 141.095 380.035 141.207C379.343 141.304 378.715 141.393 378.152 141.473C376.945 141.65 375.89 141.932 374.989 142.318C374.087 142.705 373.387 143.228 372.888 143.888C372.389 144.532 372.139 145.337 372.139 146.303C372.139 147.703 372.646 148.774 373.66 149.514C374.691 150.239 375.995 150.601 377.572 150.601ZM400.095 157V119.909H409.899V126.453H410.334C411.106 124.28 412.394 122.565 414.197 121.31C416 120.054 418.157 119.426 420.669 119.426C423.212 119.426 425.378 120.062 427.165 121.334C428.951 122.589 430.143 124.296 430.738 126.453H431.125C431.881 124.328 433.25 122.63 435.23 121.358C437.226 120.07 439.585 119.426 442.305 119.426C445.766 119.426 448.576 120.529 450.733 122.734C452.906 124.924 453.993 128.031 453.993 132.055V157H443.73V134.084C443.73 132.023 443.183 130.478 442.088 129.447C440.993 128.417 439.625 127.902 437.983 127.902C436.115 127.902 434.658 128.498 433.612 129.689C432.566 130.864 432.042 132.418 432.042 134.349V157H422.069V133.866C422.069 132.047 421.546 130.598 420.5 129.52C419.469 128.441 418.109 127.902 416.419 127.902C415.276 127.902 414.246 128.192 413.328 128.771C412.426 129.335 411.71 130.132 411.179 131.162C410.648 132.176 410.382 133.367 410.382 134.736V157H400.095Z" fill="url(#paint0_linear_78_686)"/>
<path d="M478.373 157L468.28 119.909H478.687L484.435 144.83H484.773L490.761 119.909H500.976L507.061 144.685H507.375L513.025 119.909H523.409L513.339 157H502.449L496.074 133.673H495.615L489.24 157H478.373ZM525.497 157V119.909H535.783V157H525.497ZM530.664 115.128C529.135 115.128 527.823 114.621 526.728 113.607C525.649 112.576 525.11 111.345 525.11 109.912C525.11 108.495 525.649 107.28 526.728 106.266C527.823 105.235 529.135 104.72 530.664 104.72C532.194 104.72 533.497 105.235 534.576 106.266C535.671 107.28 536.218 108.495 536.218 109.912C536.218 111.345 535.671 112.576 534.576 113.607C533.497 114.621 532.194 115.128 530.664 115.128ZM560.353 119.909V127.636H538.016V119.909H560.353ZM543.087 111.023H553.374V145.602C553.374 146.552 553.519 147.293 553.809 147.824C554.098 148.339 554.501 148.701 555.016 148.911C555.547 149.12 556.159 149.224 556.851 149.224C557.334 149.224 557.817 149.184 558.3 149.104C558.783 149.007 559.153 148.935 559.411 148.886L561.029 156.541C560.514 156.702 559.789 156.887 558.855 157.097C557.922 157.322 556.787 157.459 555.451 157.507C552.971 157.604 550.798 157.274 548.931 156.517C547.079 155.76 545.639 154.585 544.608 152.991C543.578 151.398 543.071 149.385 543.087 146.955V111.023ZM574.737 135.557V157H564.45V107.545H574.448V126.453H574.882C575.719 124.264 577.072 122.549 578.939 121.31C580.807 120.054 583.149 119.426 585.966 119.426C588.542 119.426 590.788 119.99 592.703 121.116C594.635 122.227 596.132 123.829 597.195 125.922C598.273 127.999 598.805 130.486 598.789 133.384V157H588.502V135.219C588.518 132.933 587.938 131.154 586.763 129.882C585.604 128.61 583.978 127.974 581.885 127.974C580.485 127.974 579.245 128.272 578.166 128.868C577.104 129.464 576.267 130.333 575.655 131.476C575.059 132.603 574.753 133.963 574.737 135.557ZM3.2983 261V211.545H22.8097C26.5445 211.545 29.732 212.214 32.3722 213.55C35.0284 214.87 37.0488 216.745 38.4332 219.176C39.8338 221.591 40.5341 224.432 40.5341 227.7C40.5341 230.984 39.8258 233.81 38.4091 236.176C36.9924 238.527 34.9399 240.33 32.2514 241.585C29.5791 242.841 26.3433 243.469 22.544 243.469H9.48011V235.065H20.8537C22.8499 235.065 24.508 234.792 25.8281 234.244C27.1482 233.697 28.1302 232.876 28.7741 231.781C29.4342 230.687 29.7642 229.326 29.7642 227.7C29.7642 226.058 29.4342 224.674 28.7741 223.547C28.1302 222.42 27.1402 221.567 25.804 220.987C24.4839 220.392 22.8177 220.094 20.8054 220.094H13.7543V261H3.2983ZM30.0057 238.494L42.2969 261H30.7543L18.7287 238.494H30.0057ZM60.6359 261.724C56.8205 261.724 53.5364 260.952 50.7836 259.406C48.0469 257.845 45.9379 255.639 44.4569 252.79C42.9758 249.924 42.2353 246.536 42.2353 242.624C42.2353 238.808 42.9758 235.46 44.4569 232.578C45.9379 229.696 48.0227 227.451 50.7111 225.841C53.4157 224.231 56.5871 223.426 60.2254 223.426C62.6723 223.426 64.9503 223.821 67.0592 224.609C69.1842 225.382 71.0355 226.549 72.6131 228.111C74.2069 229.672 75.4465 231.636 76.3319 234.003C77.2173 236.353 77.66 239.106 77.66 242.261V245.087H46.3404V238.712H67.9768C67.9768 237.231 67.6548 235.919 67.0109 234.776C66.3669 233.633 65.4735 232.739 64.3305 232.095C63.2036 231.435 61.8915 231.105 60.3944 231.105C58.8328 231.105 57.4484 231.467 56.241 232.192C55.0497 232.9 54.116 233.858 53.4398 235.065C52.7637 236.257 52.4176 237.585 52.4015 239.05V245.111C52.4015 246.946 52.7396 248.532 53.4157 249.868C54.1079 251.204 55.0819 252.234 56.3376 252.959C57.5933 253.683 59.0824 254.045 60.8049 254.045C61.9479 254.045 62.9943 253.884 63.9441 253.562C64.8939 253.241 65.7069 252.758 66.383 252.114C67.0592 251.47 67.5743 250.681 67.9285 249.747L77.4427 250.375C76.9597 252.661 75.9697 254.657 74.4725 256.364C72.9915 258.054 71.0757 259.374 68.7254 260.324C66.3911 261.258 63.6946 261.724 60.6359 261.724ZM111.834 234.486L102.416 235.065C102.255 234.26 101.909 233.536 101.378 232.892C100.847 232.232 100.146 231.709 99.2771 231.322C98.4238 230.92 97.4016 230.719 96.2103 230.719C94.6165 230.719 93.2723 231.057 92.1776 231.733C91.0829 232.393 90.5356 233.278 90.5356 234.389C90.5356 235.275 90.8897 236.023 91.5981 236.635C92.3064 237.247 93.5218 237.738 95.2444 238.108L101.957 239.46C105.564 240.201 108.252 241.392 110.023 243.034C111.794 244.676 112.679 246.833 112.679 249.506C112.679 251.937 111.963 254.07 110.53 255.905C109.113 257.74 107.165 259.173 104.686 260.203C102.223 261.217 99.3817 261.724 96.162 261.724C91.252 261.724 87.34 260.702 84.4262 258.658C81.5285 256.597 79.8301 253.796 79.331 250.254L89.4489 249.723C89.7548 251.22 90.4953 252.363 91.6705 253.152C92.8457 253.925 94.3509 254.311 96.1861 254.311C97.9892 254.311 99.438 253.965 100.533 253.273C101.644 252.564 102.207 251.655 102.223 250.544C102.207 249.61 101.813 248.846 101.04 248.25C100.267 247.638 99.0758 247.171 97.466 246.849L91.0427 245.57C87.4205 244.845 84.724 243.589 82.9532 241.803C81.1985 240.016 80.3211 237.738 80.3211 234.969C80.3211 232.586 80.965 230.534 82.2529 228.811C83.5569 227.089 85.3841 225.76 87.7344 224.827C90.1009 223.893 92.8699 223.426 96.0413 223.426C100.726 223.426 104.412 224.416 107.101 226.396C109.805 228.376 111.383 231.073 111.834 234.486ZM132.515 261.724C128.764 261.724 125.52 260.928 122.784 259.334C120.063 257.724 117.962 255.486 116.481 252.621C115 249.739 114.26 246.399 114.26 242.599C114.26 238.768 115 235.42 116.481 232.554C117.962 229.672 120.063 227.435 122.784 225.841C125.52 224.231 128.764 223.426 132.515 223.426C136.266 223.426 139.502 224.231 142.223 225.841C144.959 227.435 147.068 229.672 148.549 232.554C150.03 235.42 150.771 238.768 150.771 242.599C150.771 246.399 150.03 249.739 148.549 252.621C147.068 255.486 144.959 257.724 142.223 259.334C139.502 260.928 136.266 261.724 132.515 261.724ZM132.563 253.756C134.27 253.756 135.695 253.273 136.838 252.307C137.981 251.325 138.842 249.989 139.421 248.298C140.017 246.608 140.315 244.684 140.315 242.527C140.315 240.37 140.017 238.446 139.421 236.756C138.842 235.065 137.981 233.729 136.838 232.747C135.695 231.765 134.27 231.274 132.563 231.274C130.841 231.274 129.392 231.765 128.217 232.747C127.058 233.729 126.18 235.065 125.585 236.756C125.005 238.446 124.715 240.37 124.715 242.527C124.715 244.684 125.005 246.608 125.585 248.298C126.18 249.989 127.058 251.325 128.217 252.307C129.392 253.273 130.841 253.756 132.563 253.756ZM164.347 211.545V261H154.06V211.545H164.347ZM203.767 223.909L190.799 261H179.208L166.241 223.909H177.108L184.811 250.447H185.197L192.876 223.909H203.767ZM209.319 261.628C207.726 261.628 206.357 261.064 205.214 259.938C204.087 258.795 203.524 257.426 203.524 255.832C203.524 254.255 204.087 252.902 205.214 251.776C206.357 250.649 207.726 250.085 209.319 250.085C210.865 250.085 212.217 250.649 213.376 251.776C214.535 252.902 215.115 254.255 215.115 255.832C215.115 256.895 214.841 257.869 214.294 258.754C213.763 259.624 213.062 260.324 212.193 260.855C211.324 261.37 210.366 261.628 209.319 261.628Z" fill="#FEFEFE"/>
</g>
<defs>
<linearGradient id="paint0_linear_78_686" x1="317.5" y1="28" x2="317.5" y2="296" gradientUnits="userSpaceOnUse">
<stop stop-color="#805AD5"/>
<stop offset="0.437877" stop-color="#9653E4"/>
<stop offset="1" stop-color="#B249F8"/>
</linearGradient>
</defs>
</svg>
